<?xml version="1.0" encoding="UTF-8" standalone="no"?>
<!-- Generator: Adobe Illustrator 15.0.2, SVG Export Plug-In . SVG Version: 6.00 Build 0)  -->

<svg
   xmlns:dc="http://purl.org/dc/elements/1.1/"
   xmlns:cc="http://creativecommons.org/ns#"
   xmlns:rdf="http://www.w3.org/1999/02/22-rdf-syntax-ns#"
   xmlns:svg="http://www.w3.org/2000/svg"
   xmlns="http://www.w3.org/2000/svg"
   xmlns:sodipodi="http://sodipodi.sourceforge.net/DTD/sodipodi-0.dtd"
   xmlns:inkscape="http://www.inkscape.org/namespaces/inkscape"
   version="1.1"
   id="Ebene_1"
   x="0px"
   y="0px"
   width="157"
   height="211.58099"
   viewBox="0 0 157 211.58099"
   enable-background="new 0 0 800 600"
   xml:space="preserve"
   sodipodi:docname="MoodlelogoStackneu.svg"
   inkscape:version="0.92.2 (5c3e80d, 2017-08-06)"><metadata
     id="metadata65"><rdf:RDF><cc:Work
         rdf:about=""><dc:format>image/svg+xml</dc:format><dc:type
           rdf:resource="http://purl.org/dc/dcmitype/StillImage" /><dc:title></dc:title></cc:Work></rdf:RDF></metadata><defs
     id="defs63" /><sodipodi:namedview
     pagecolor="#ffffff"
     bordercolor="#666666"
     borderopacity="1"
     objecttolerance="10"
     gridtolerance="10"
     guidetolerance="10"
     inkscape:pageopacity="0"
     inkscape:pageshadow="2"
     inkscape:window-width="1920"
     inkscape:window-height="1051"
     id="namedview61"
     showgrid="false"
     inkscape:zoom="1.4142136"
     inkscape:cx="281.26803"
     inkscape:cy="91.072634"
     inkscape:window-x="-9"
     inkscape:window-y="-9"
     inkscape:window-maximized="1"
     inkscape:current-layer="Ebene_1"
     fit-margin-top="0"
     fit-margin-left="0"
     fit-margin-right="0"
     fit-margin-bottom="0" /><g
     id="g12"
     transform="translate(-153,-41.419)"><path
       stroke-miterlimit="10"
       d="M 232.84,153.243"
       id="path2"
       inkscape:connector-curvature="0"
       style="fill:#f7931e;stroke:#f15a24;stroke-width:1.02610004;stroke-miterlimit:10" /><g
       id="g10"><path
         d="m 232.377,165 -0.305,-0.495 C 224.741,156.466 191.402,141 178.362,141 H 177 v -9 h 1.361 c 13.143,0 40.338,11.172 53.836,20.469 C 245.562,143.233 272.507,132 285.075,132 H 286 v 9 h -0.925 c -13.486,0 -44.217,15.789 -51.251,23.505 L 233.519,165 Z"
         id="path4"
         inkscape:connector-curvature="0"
         style="fill:#f7931e" /><path
         d="m 285,133 v 6.822 C 272,139.822 240.55,155 233.065,164 H 232.83 C 225.344,155 192,139.822 178,139.822 v -7.183 c 14,0 40.936,11.51 53.89,20.604 l 0.641,-0.232 c 13.04,-9.058 40.47,-20.372 52.47,-20.372 M 287,131 h -1.925 c -12.56,0 -39.207,11.013 -52.879,20.253 C 218.388,141.956 191.488,131 178.361,131 H 176 v 1.639 7.183 2.178 h 2.361 c 12.858,0 45.727,15.246 52.953,23.17 l 0.61,0.83 h 0.906 0.235 0.906 l 0.61,-0.83 C 241.338,157.758 272.094,142 285.074,142 H 287 v -2.178 -7.183 z"
         id="path6"
         inkscape:connector-curvature="0"
         style="fill:#bd6116" /><path
         stroke-miterlimit="10"
         d="m 232.871,153.011 c 13.04,-9.058 39.629,-20.372 52.629,-20.372 v 7.183 c -14,0 -44.95,15.469 -52.435,23.678 h -0.235 c -7.486,-8.209 -41.33,-23.678 -54.33,-23.678 v -7.183 c 13,0 40.792,11.51 53.746,20.604 z"
         id="path8"
         inkscape:connector-curvature="0"
         style="fill:none;stroke:#fbc75e;stroke-miterlimit:10" /></g></g><g
     id="g24"
     transform="translate(-153,-41.419)"><path
       stroke-miterlimit="10"
       d="M 232.784,180.63"
       id="path14"
       inkscape:connector-curvature="0"
       style="fill:#f7931e;stroke:#f15a24;stroke-width:1.1875;stroke-miterlimit:10" /><g
       id="g22"><path
         d="m 232.248,194 -0.353,-0.686 C 223.411,184.011 184.828,166 169.736,166 H 169 v -10 h 0.736 c 15.211,0 46.684,12.929 62.304,23.688 C 247.507,168.999 278.691,156 293.236,156 H 294 v 10 h -0.764 c -15.607,0 -51.172,18.385 -59.314,27.314 L 233.569,194 Z"
         id="path16"
         inkscape:connector-curvature="0"
         style="fill:#f7931e" /><path
         d="m 293,157 v 8.098 c -15,0 -51.293,17.902 -59.956,27.902 h -0.272 C 224.108,183 185,165.098 170,165.098 v -8.313 c 15,0 47.033,13.319 62.025,23.845 l 0.497,-0.27 C 247.613,169.879 279,156.785 293,156.785 M 296,154 h -2.764 c -14.535,0 -45.375,12.745 -61.197,23.438 C 216.059,166.678 184.929,154 169.736,154 H 167 v 2.785 8.313 1.902 h 2.736 c 6.621,0 19.302,4.043 33.094,10.17 13.035,5.792 24.363,12.681 28.188,16.875 l 0.707,0.955 h 1.048 0.272 1.048 l 0.707,-1.074 C 242.621,185.348 278.216,167 293.237,167 H 296 v -1.902 -8.313 z"
         id="path18"
         inkscape:connector-curvature="0"
         style="fill:#bd6116" /><path
         stroke-miterlimit="10"
         d="M 232.706,180.36 C 247.797,169.879 278.5,156.785 293.5,156.785 v 8.313 c -16,0 -51.793,17.902 -60.456,27.402 h -0.272 C 224.108,183 185.5,165.098 169.5,165.098 v -8.313 c 16,0 47.35,13.319 62.341,23.845 z"
         id="path20"
         inkscape:connector-curvature="0"
         style="fill:none;stroke:#fbc75e;stroke-miterlimit:10" /></g></g><g
     id="g36"
     transform="translate(-153,-41.419)"><path
       stroke-miterlimit="10"
       d="M 232.996,208.229"
       id="path26"
       inkscape:connector-curvature="0"
       style="fill:#f7931e;stroke:#f15a24;stroke-width:1.32780004;stroke-miterlimit:10" /><g
       id="g34"><path
         d="m 232.398,223 -0.395,-0.613 C 222.516,211.985 179.375,192 162.5,192 H 161 v -12 h 1.5 c 17.008,0 52.199,14.457 69.666,26.486 C 249.459,194.535 284.327,180 300.59,180 H 302 v 12 h -1.41 c -17.451,0 -57.218,20.403 -66.321,30.387 L 233.874,223 Z"
         id="path28"
         inkscape:connector-curvature="0"
         style="fill:#f7931e" /><path
         d="m 301,182 v 8.86 c -18,0 -58.026,20.14 -67.712,31.14 h -0.304 C 223.296,211 180,190.86 162,190.86 v -9.294 c 18,0 52.988,14.893 69.75,26.661 l 1.091,-0.301 c 16.873,-11.72 52.158,-26.36 68.158,-26.36 M 303,179 h -2.41 c -16.252,0 -50.735,14.25 -68.426,26.207 C 214.296,193.176 179.487,179 162.5,179 H 160 v 2.566 9.294 3.14 h 2.5 c 7.403,0 21.583,4.014 37.004,10.865 14.576,6.477 27.242,13.778 31.518,18.467 l 0.79,0.667 h 1.172 0.304 1.172 l 0.79,-0.547 c 8.745,-9.591 48.544,-29.453 65.34,-29.453 H 303 v -3.14 -9.294 z"
         id="path30"
         inkscape:connector-curvature="0"
         style="fill:#bd6116" /><path
         stroke-miterlimit="10"
         d="m 232.717,207.927 c 16.873,-11.72 51.783,-26.36 67.783,-26.36 v 9.294 c -17,0 -57.526,20.018 -67.212,30.64 h -0.304 c -9.688,-10.622 -53.223,-30.64 -70.484,-30.64 v -9.294 c 17.261,0 52.715,14.893 69.478,26.661 z"
         id="path32"
         inkscape:connector-curvature="0"
         style="fill:none;stroke:#fbc75e;stroke-miterlimit:10" /></g></g><g
     id="g48"
     transform="translate(-153,-41.419)"><path
       stroke-miterlimit="10"
       d="M 233.078,235.939"
       id="path38"
       inkscape:connector-curvature="0"
       style="fill:#f7931e;stroke:#f15a24;stroke-width:1.45669997;stroke-miterlimit:10" /><g
       id="g46"><path
         d="m 232.421,252 -0.433,-0.667 C 221.58,239.92 174.25,218 155.736,218 H 154 v -13 h 1.736 c 18.659,0 57.268,15.86 76.43,29.059 C 251.139,220.946 289.393,205 307.236,205 H 309 v 13 h -1.764 c -19.146,0 -62.774,22.379 -72.761,33.333 L 234.041,252 Z"
         id="path40"
         inkscape:connector-curvature="0"
         style="fill:#808080" /><path
         d="m 307,207 v 9.885 c -19,0 -62.976,22.115 -73.602,34.115 h -0.334 C 222.436,239 175,216.885 156,216.885 v -10.197 c 19,0 57.727,16.339 76.117,29.25 l 0.652,-0.33 C 251.281,222.75 290,206.688 307,206.688 M 310,204 h -2.764 c -17.831,0 -55.662,15.521 -75.071,28.639 -9.298,-6.262 -22.969,-13.143 -37.026,-18.708 -9.423,-3.73 -27.073,-9.932 -39.402,-9.932 H 153 v 2.688 10.197 3.116 h 2.736 c 8.123,0 23.678,4.568 40.597,12.086 15.991,7.104 29.887,15.077 34.578,20.221 l 0.867,0.693 h 1.286 0.334 1.286 l 0.867,-0.744 c 4.803,-5.268 18.021,-13.303 32.89,-20.3 C 284.623,224.342 299.125,220 307.236,220 H 310 v -3.115 -10.197 z"
         id="path42"
         inkscape:connector-curvature="0"
         style="fill:#666666" /><path
         stroke-miterlimit="10"
         d="m 232.953,235.608 c 18.512,-12.858 56.547,-28.92 74.547,-28.92 v 10.197 c -19,0 -63.476,21.961 -74.102,33.615 h -0.334 C 222.436,238.846 174.5,216.885 155.5,216.885 v -10.197 c 19,0 58.043,16.339 76.434,29.25 z"
         id="path44"
         inkscape:connector-curvature="0"
         style="fill:none;stroke:#cccccc;stroke-miterlimit:10" /></g></g><path
     stroke-miterlimit="10"
     d="M 96.393,0"
     id="path50"
     inkscape:connector-curvature="0"
     style="fill:#f7931e;stroke:#f15a24;stroke-miterlimit:10" /><g
     id="g58"
     transform="translate(-153,-41.419)"><path
       d="m 279,113.312 c -12,0 -39.866,13.688 -46.563,21.688 h -0.21 C 225.527,127 195,113.312 183,113.312 v -0.849 -6.427 C 195,106.036 223.329,92 230.026,85 h 0.21 c 6.7,7 36.764,21.036 48.764,21.036 z"
       id="path52"
       inkscape:connector-curvature="0"
       style="fill:#f7931e" /><path
       stroke-miterlimit="10"
       d="m 278.5,113.312 c -11,0 -39.366,13.842 -46.063,21.188 h -0.21 C 225.528,127.154 195.5,113.312 183.5,113.312 v -0.849 -6.427 c 12,0 39.829,-13.536 46.526,-21.536 h 0.21 c 6.699,8 37.263,21.536 48.263,21.536 v 7.276 z"
       id="path54"
       inkscape:connector-curvature="0"
       style="fill:none;stroke:#bd6116;stroke-width:3;stroke-miterlimit:10" /><path
       d="m 229.907,87.533 c 8.524,7.48 34.093,19.183 47.093,20.399 v 3.48 c -13,1.214 -36.77,13.126 -44.907,20.402 C 223.568,124.333 198,112.63 185,111.414 v -3.48 c 13,-1.213 36.771,-13.125 44.907,-20.401 M 230.237,85 h -0.21 C 223.329,92 195,106.036 183,106.036 v 6.427 0.849 c 12,0 42.527,13.688 49.227,21.688 h 0.21 C 239.135,127 267,113.312 279,113.312 v -7.276 C 267,106.036 236.936,92 230.237,85 Z"
       id="path56"
       inkscape:connector-curvature="0"
       style="fill:#fbc75e" /></g><rect
     style="fill:#bd6116;fill-opacity:1;stroke:none;stroke-width:129.76661682;stroke-miterlimit:4.19999981;stroke-dasharray:none;stroke-opacity:1;paint-order:markers fill stroke"
     id="rect6029"
     width="1.5"
     height="1.5015243"
     x="125.49899"
     y="71.892998" /><rect
     style="fill:#bd6116;fill-opacity:1;stroke:none;stroke-width:3.70000005;stroke-miterlimit:4.19999981;stroke-dasharray:none;stroke-opacity:1;paint-order:markers fill stroke"
     id="rect6033"
     width="0.9921875"
     height="0.125"
     x="126.00391"
     y="71.831001" /></svg>