<svg width="24" height="24" viewBox="0 0 24 24" fill="none" xmlns="http://www.w3.org/2000/svg" preserveAspectRatio="xMinYMid meet"><path d="M3.4 18.3s5.6.4 8.7 2.5c2.7-2 8.7-2.5 8.7-2.5v-2s-5.3.2-8.7 2.2c-3.1-2-8.7-2.2-8.7-2.2v2zm.8-4.2s4.7.2 7.8 2.1c3-2 7.8-2.1 7.8-2.1v-1.9s-4.9.2-7.8 1.9c-3.3-1.8-7.8-1.9-7.8-1.9v1.9zm.8-3.9s3.9.2 7 1.7c2.9-1.5 7-1.7 7-1.7V8.4s-4.2.1-7 1.5C8.9 8.4 5 8.4 5 8.4v1.8zm13.6-3.8s-4.1.1-6.6 1.4C9.7 6.6 5.5 6.4 5.5 6.4V5s4.3-.5 6.6-1.7C14.3 4.5 18.6 5 18.6 5v1.4z" fill="none" stroke="#212529" stroke-linecap="round" stroke-linejoin="round" stroke-width="1.25"/></svg>